<mxfile host="app.diagrams.net" modified="2021-01-20T16:33:30.144Z" agent="5.0 (Macintosh; Intel Mac OS X 10_15_6) AppleWebKit/605.1.15 (KHTML, like Gecko) Version/14.0.2 Safari/605.1.15" etag="4sEgn5I7TZhe8T6f4SmP" version="14.2.4" type="github">
  <diagram id="oNtX12UYIT18xoj687Rq" name="Page-1">
    <mxGraphModel dx="968" dy="520" grid="1" gridSize="10" guides="1" tooltips="1" connect="1" arrows="1" fold="1" page="1" pageScale="1" pageWidth="827" pageHeight="1169" math="0" shadow="0">
      <root>
        <mxCell id="0" />
        <mxCell id="1" parent="0" />
        <mxCell id="W8GmWF1izih0Oc16dzD1-19" value="name: str&lt;br&gt;wallet: int&lt;br&gt;&lt;br&gt;age: int&lt;br&gt;drunkness: int" style="rounded=0;whiteSpace=wrap;html=1;align=left;" parent="1" vertex="1">
          <mxGeometry x="310" y="210" width="190" height="90" as="geometry" />
        </mxCell>
        <mxCell id="W8GmWF1izih0Oc16dzD1-20" value="Customer" style="rounded=0;whiteSpace=wrap;html=1;" parent="1" vertex="1">
          <mxGeometry x="310" y="170" width="190" height="40" as="geometry" />
        </mxCell>
        <mxCell id="W8GmWF1izih0Oc16dzD1-21" value="reduce_wallet(amount)&lt;br&gt;buy_drink(drink_name):&amp;nbsp;" style="rounded=0;whiteSpace=wrap;html=1;" parent="1" vertex="1">
          <mxGeometry x="310" y="300" width="190" height="110" as="geometry" />
        </mxCell>
        <mxCell id="W8GmWF1izih0Oc16dzD1-22" value="name: str&lt;br&gt;till: int&lt;br&gt;drinks: Drinks [ ]" style="rounded=0;whiteSpace=wrap;html=1;" parent="1" vertex="1">
          <mxGeometry x="60" y="210" width="190" height="90" as="geometry" />
        </mxCell>
        <mxCell id="W8GmWF1izih0Oc16dzD1-23" value="Pub" style="rounded=0;whiteSpace=wrap;html=1;" parent="1" vertex="1">
          <mxGeometry x="60" y="170" width="190" height="40" as="geometry" />
        </mxCell>
        <mxCell id="W8GmWF1izih0Oc16dzD1-24" value="add_cash_to_till(amount)&lt;br&gt;drinks_sold()&lt;br&gt;#stock_count()&lt;br&gt;&lt;br&gt;age_check(customer.age)&lt;br&gt;drunkness_check(customer.drunkness)" style="rounded=0;whiteSpace=wrap;html=1;" parent="1" vertex="1">
          <mxGeometry x="60" y="300" width="190" height="110" as="geometry" />
        </mxCell>
        <mxCell id="W8GmWF1izih0Oc16dzD1-25" value="name: str&lt;br&gt;price: int&lt;br&gt;&lt;br&gt;alcohol_level: int" style="rounded=0;whiteSpace=wrap;html=1;" parent="1" vertex="1">
          <mxGeometry x="540" y="210" width="190" height="90" as="geometry" />
        </mxCell>
        <mxCell id="W8GmWF1izih0Oc16dzD1-26" value="Drinks" style="rounded=0;whiteSpace=wrap;html=1;" parent="1" vertex="1">
          <mxGeometry x="540" y="170" width="190" height="40" as="geometry" />
        </mxCell>
        <mxCell id="W8GmWF1izih0Oc16dzD1-27" value="" style="rounded=0;whiteSpace=wrap;html=1;" parent="1" vertex="1">
          <mxGeometry x="540" y="300" width="190" height="110" as="geometry" />
        </mxCell>
        <mxCell id="W8GmWF1izih0Oc16dzD1-28" value="Class" style="text;html=1;align=center;verticalAlign=middle;resizable=0;points=[];autosize=1;" parent="1" vertex="1">
          <mxGeometry x="755" y="180" width="50" height="20" as="geometry" />
        </mxCell>
        <mxCell id="W8GmWF1izih0Oc16dzD1-29" value="Instance variable" style="text;html=1;align=center;verticalAlign=middle;resizable=0;points=[];autosize=1;" parent="1" vertex="1">
          <mxGeometry x="740" y="245" width="110" height="20" as="geometry" />
        </mxCell>
        <mxCell id="W8GmWF1izih0Oc16dzD1-30" value="Methods&lt;br&gt;" style="text;html=1;align=center;verticalAlign=middle;resizable=0;points=[];autosize=1;" parent="1" vertex="1">
          <mxGeometry x="755" y="345" width="60" height="20" as="geometry" />
        </mxCell>
        <mxCell id="VRF8J4A95mkVzFjiKFQD-1" value="name: str&lt;br&gt;price: int&lt;br&gt;rejuvenation_level: int" style="rounded=0;whiteSpace=wrap;html=1;" vertex="1" parent="1">
          <mxGeometry x="220" y="500" width="190" height="90" as="geometry" />
        </mxCell>
        <mxCell id="VRF8J4A95mkVzFjiKFQD-2" value="Food" style="rounded=0;whiteSpace=wrap;html=1;" vertex="1" parent="1">
          <mxGeometry x="220" y="460" width="190" height="40" as="geometry" />
        </mxCell>
        <mxCell id="VRF8J4A95mkVzFjiKFQD-3" value="" style="rounded=0;whiteSpace=wrap;html=1;" vertex="1" parent="1">
          <mxGeometry x="220" y="590" width="190" height="110" as="geometry" />
        </mxCell>
      </root>
    </mxGraphModel>
  </diagram>
</mxfile>
